<?xml version="1.0" encoding="utf-8"?>
<!-- Generator: Adobe Illustrator 22.0.0, SVG Export Plug-In . SVG Version: 6.00 Build 0)  -->
<svg version="1.1" id="Livello_1" xmlns="http://www.w3.org/2000/svg" xmlns:xlink="http://www.w3.org/1999/xlink" x="0px" y="0px"
	 viewBox="0 0 150 150" style="enable-background:new 0 0 150 150;" xml:space="preserve">
<style type="text/css">
	.st0{fill:#9A3434;}
	.st1{fill:#FFFFFF;}
	.st2{fill:#353635;}
</style>
<g>
	<g>
		
			<rect x="2.3" y="72.6" transform="matrix(0.7014 -0.7128 0.7128 0.7014 -31.074 75.7943)" class="st0" width="145.2" height="4.8"/>
		<path class="st0" d="M74.9,150c-41,0-74.7-33.4-74.9-74.4c-0.1-20.1,7.5-38.9,21.5-53.2S54.3,0.1,74.4,0h0.7
			c41,0,74.7,33.4,74.9,74.4c0.3,41.4-33,75.2-74.4,75.6H74.9z M74.9,4.8h-0.6C55.7,5,38.1,12.5,24.9,25.8S4.6,56.8,4.8,75.5
			C5.1,113.8,36.6,145,74.9,145h0.6c38.6-0.3,69.9-32,69.5-70.8C144.7,36,113.3,4.8,74.9,4.8z"/>
	</g>
	<g>
		<g>
			<g>
				<path class="st1" d="M60.7,26.6L60.7,26.6h-0.3c-7.1,0-13.7,2.9-18.7,7.9c-5,5.1-7.8,11.8-7.6,18.8c0,8.2,4,15.9,10.5,20.9
					c0.1,0.1,0.3,0.3,0.4,0.3c13.9,10.1,14.5,11.2,18.3,27.8c0,0,0,0,0,0.1l0,0v0.1c2.8,12,13.6,20.8,25.9,20.8h0.3
					c7.1,0,13.7-2.9,18.7-7.9c5-5.1,7.8-11.8,7.6-18.8c0-8.3-3.9-15.9-10.5-20.9c-0.1-0.1-0.3-0.3-0.4-0.3
					C91,65.4,90.3,64.3,86.6,47.6v-0.1c0-0.1,0-0.1,0-0.3C83.8,35.2,73,26.6,60.7,26.6L60.7,26.6z"/>
			</g>
		</g>
	</g>
	<g>
		<g>
			<g>
				<path class="st2" d="M60,29.2c10.9,0,20.2,7.8,22.4,18l0,0l0,0v0.1c4.2,18.6,5.5,20.6,20.9,31.9l0,0c5.7,4.2,9.4,10.8,9.4,18.4
					c0.1,12.7-10.1,23.1-22.9,23.1h-0.1c-10.9,0-20.2-7.8-22.4-18l0,0l0,0v-0.1C63.2,84.1,61.8,82,46.4,70.8l0,0
					C40.7,66.6,37,60,37,52.4c-0.1-12.7,10.1-23.1,22.9-23.1C59.8,29.2,59.8,29.2,60,29.2L60,29.2z M60,24.4L60,24.4h-0.3
					c-7.5,0-14.4,3-19.7,8.3S32,45,32,52.5c0,8.6,4.2,16.8,10.9,21.9c0.1,0.1,0.3,0.3,0.4,0.4c14.5,10.5,15.2,11.6,19.1,29.1
					c0,0,0,0,0,0.1l0,0v0.1c2.8,12.6,14.3,21.7,27.1,21.7h0.3c7.5,0,14.4-3,19.7-8.3c5.3-5.3,8-12.3,8-19.8c0-8.7-4-16.6-10.9-21.9
					c-0.1-0.1-0.3-0.3-0.4-0.3C91.7,65,91,64,87.1,46.5v-0.1c0-0.1,0-0.1,0-0.3C84.2,33.4,72.9,24.4,60,24.4L60,24.4z"/>
			</g>
		</g>
	</g>
	<path class="st2" d="M47.2,55.8c-0.4,0-0.8,0-1.2-0.1c-1.2-0.3-2.1-1.5-1.8-2.9c0.3-1.2,1.5-2.1,2.9-1.8c0.3,0,0.6,0,0.6-0.1
		c0.1,0,0.3-0.3,0.4-0.6c0-0.3,0-0.6-0.1-0.7c-0.8-1.1-0.6-2.6,0.6-3.3c1.1-0.8,2.6-0.6,3.3,0.6c0.8,1.2,1.2,2.9,0.8,4.4
		c-0.3,1.5-1.2,2.8-2.5,3.6C49.3,55.5,48.3,55.8,47.2,55.8z"/>
	<path class="st2" d="M56.9,44.7c-0.4,0-0.8,0-1.2-0.1c-1.2-0.3-2.1-1.5-1.8-2.9c0.3-1.2,1.5-2.1,2.9-1.8c0.3,0,0.6,0,0.6-0.1
		c0.1,0,0.3-0.3,0.4-0.6c0-0.3,0-0.6-0.1-0.7c-0.8-1.1-0.6-2.6,0.6-3.3c1.1-0.8,2.6-0.6,3.3,0.6c0.8,1.2,1.2,2.9,0.8,4.4
		c-0.3,1.5-1.2,2.8-2.5,3.6C59.1,44.5,58,44.7,56.9,44.7z"/>
	<path class="st2" d="M62.9,56.8c-0.4,0-0.8,0-1.2-0.1c-1.2-0.3-2.1-1.5-1.8-2.9c0.3-1.2,1.5-2.1,2.9-1.8c0.3,0,0.6,0,0.6-0.1
		c0.1,0,0.3-0.3,0.4-0.6c0-0.3,0-0.6-0.1-0.7c-0.8-1.1-0.6-2.6,0.6-3.3c1.1-0.8,2.6-0.6,3.3,0.6c0.8,1.2,1.2,2.9,0.8,4.4
		C68,53.7,67,55,65.8,55.8C65,56.5,63.9,56.8,62.9,56.8z"/>
</g>
</svg>
